REM MD5 fa361bf793e9c00fe7db3f28c1e9fd2a
FILE "Italian Job, The (UK) (Demo).bin" BINARY
  TRACK 01 MODE2/2352
    INDEX 01 00:00:00
  TRACK 02 AUDIO
    INDEX 00 04:27:25
    INDEX 01 04:29:25
  TRACK 03 AUDIO
    INDEX 00 05:30:23
    INDEX 01 05:32:23
REM LEADOUT 08:33:55
